<svg width="106" height="42" viewBox="0 0 106 42" fill="none" xmlns="http://www.w3.org/2000/svg">
<path d="M12.4318 24.9091V22.3636H22.5455V24.9091H19.0455V34H15.9318V24.9091H12.4318ZM26.8935 22.3636V34H23.7344V22.3636H26.8935ZM28.3906 22.3636H32.3224L35.027 28.9545H35.1634L37.8679 22.3636H41.7997V34H38.7088V27.2727H38.6179L36.027 33.9091H34.1634L31.5724 27.2273H31.4815V34H28.3906V22.3636ZM43.2969 34V22.3636H51.6832V24.9091H46.456V26.9091H51.2514V29.4545H46.456V31.4545H51.6605V34H43.2969ZM53.25 34V22.3636H61.4318V24.9091H56.4091V26.9091H60.9318V29.4545H56.4091V34H53.25ZM64.1634 34H60.7543L64.5952 22.3636H68.9134L72.7543 34H69.3452L66.7997 25.5682H66.7088L64.1634 34ZM63.527 29.4091H69.9361V31.7727H63.527V29.4091ZM79.6946 26C79.6643 25.6212 79.5223 25.3258 79.2685 25.1136C79.0185 24.9015 78.6378 24.7955 78.1264 24.7955C77.8007 24.7955 77.5336 24.8352 77.3253 24.9148C77.1207 24.9905 76.9692 25.0947 76.8707 25.2273C76.7723 25.3598 76.7211 25.5114 76.7173 25.6818C76.7098 25.822 76.7344 25.9489 76.7912 26.0625C76.8518 26.1723 76.9465 26.2727 77.0753 26.3636C77.2041 26.4508 77.3688 26.5303 77.5696 26.6023C77.7704 26.6742 78.009 26.7386 78.2855 26.7955L79.2401 27C79.884 27.1364 80.4351 27.3163 80.8935 27.5398C81.3518 27.7633 81.7268 28.0265 82.0185 28.3295C82.3101 28.6288 82.5241 28.9659 82.6605 29.3409C82.8007 29.7159 82.8726 30.125 82.8764 30.5682C82.8726 31.3333 82.6813 31.9811 82.3026 32.5114C81.9238 33.0417 81.3821 33.4451 80.6776 33.7216C79.9768 33.9981 79.134 34.1364 78.1491 34.1364C77.1378 34.1364 76.2552 33.9867 75.5014 33.6875C74.7514 33.3883 74.1681 32.928 73.7514 32.3068C73.3385 31.6818 73.1302 30.8826 73.1264 29.9091H76.1264C76.1454 30.2652 76.2344 30.5644 76.3935 30.8068C76.5526 31.0492 76.776 31.233 77.0639 31.358C77.3556 31.483 77.7022 31.5455 78.1037 31.5455C78.4408 31.5455 78.723 31.5038 78.9503 31.4205C79.1776 31.3371 79.3499 31.2216 79.4673 31.0739C79.5848 30.9261 79.6454 30.7576 79.6491 30.5682C79.6454 30.3902 79.5866 30.2348 79.473 30.1023C79.3632 29.9659 79.1813 29.8447 78.9276 29.7386C78.6738 29.6288 78.331 29.5265 77.8991 29.4318L76.7401 29.1818C75.7098 28.9583 74.8973 28.5852 74.3026 28.0625C73.7116 27.536 73.4181 26.8182 73.4219 25.9091C73.4181 25.1705 73.6151 24.5246 74.0128 23.9716C74.4143 23.4148 74.9692 22.9811 75.6776 22.6705C76.3897 22.3598 77.206 22.2045 78.1264 22.2045C79.0658 22.2045 79.8783 22.3617 80.5639 22.6761C81.2495 22.9905 81.7779 23.4337 82.1491 24.0057C82.5241 24.5739 82.7135 25.2386 82.7173 26H79.6946ZM83.7599 24.9091V22.3636H93.8736V24.9091H90.3736V34H87.2599V24.9091H83.7599Z" fill="#034EA1"/>
<path d="M12.5 8V18.5H94L12.5 8Z" fill="#FBAE1D"/>
</svg>
